<svg version="1.2" xmlns="http://www.w3.org/2000/svg" viewBox="0 0 436 306" width="436" height="306"><style>.a{fill:#fff}</style><path fill-rule="evenodd" class="a" d="m153.8 115.4c-0.5 3.6-3.9 6.1-7.5 5.6-3.6-0.5-6.2-3.9-5.6-7.5 0.5-3.7 3.9-6.2 7.5-5.7 3.6 0.6 6.1 3.9 5.6 7.6zm-4.5 3.6c-6-2.6-4.2-9.2-4.2-9.2-3.2 2-3.3 6.6-1 8.4 2.4 1.8 5.2 0.8 5.2 0.8z"/><path fill-rule="evenodd" class="a" d="m216.4 232.2c-54.1-3.8-75-52.2-77.6-67.6-2.6-15.4-0.5-24.4 6.6-23.3 7.2 1-1.2 27.7 18.4 57.3 19.6 29.6 52.6 33.6 52.6 33.6zm-67.4-51.5c-6.3-17.7-0.4-32.3-5-33.3-4.6-0.9-3.6 10.1-1.5 18.4 2.2 8.3 6.5 14.9 6.5 14.9z"/><path class="a" d="m150.3 134c0.2-1.7-0.9-3.2-2.6-3.5-1.7-0.2-3.3 1-3.5 2.6-0.2 1.7 0.9 3.3 2.6 3.5 1.7 0.3 3.2-0.9 3.5-2.6z"/><path class="a" d="m198.4 103.3c0.3-1.7-0.9-3.2-2.6-3.5-1.7-0.2-3.2 1-3.5 2.6-0.2 1.7 0.9 3.3 2.6 3.5 1.7 0.3 3.3-0.9 3.5-2.6z"/><path fill-rule="evenodd" class="a" d="m254.1 88.5c0 0 49.9 17 42.5 79.1-7.4 62.1-85.2 76.7-116.9 42.4-28-30.3-21.6-77-0.9-97.1 2.3-1.8 6-3.2 7.4-1.5 1.4 1.6 0.9 4.3-0.2 5.6-4.5 3.8-10.9 10.3-13.3 19.1-9.3 33.7 29.5 78.8 73.1 61.4 43.6-17.4 48.4-84.2 8.3-109zm22.9 106.4c0 0-16.4 20.3-47 21.9-30.6 1.6-58.3-25.1-63.9-56.3 0 0 2.4 42.4 38.3 57 36 14.5 66.2-9.4 72.6-22.6zm9.5-63c3.3 35.7-18.2 72.6-53.3 74.4-35.1 1.8-53.1-22.3-53.1-22.3 15.8 27.8 53.8 39.8 84.5 14.7 30.8-25 21.9-66.8 21.9-66.8z"/><path fill-rule="evenodd" class="a" d="m208.7 87.7c-12.3 3.9-70.3 29.5-45.9 103.9 0 0-10.8-17.4-9.5-45.9 1.3-28.6 23.1-55.8 43-64.2 19.8-8.5 24.7 2.3 12.4 6.2zm-32.5 11.5c8.3-7.2 24-13.7 27.4-14.4 3.5-0.7 3.1-2.8 3.1-2.8-15.3-0.1-30.5 17.2-30.5 17.2z"/><path class="a" d="m124.1 118.9c0 13.6-8.5 24.2-8.5 24.2 0 0 18.2 12.6 18.2 38.6-0.8 30.2-25.4 51.6-55.8 51.6-22.8 0-44.2-14.4-50.5-38.7l26-10.7c4.9 10.7 13.7 18.2 26 18.2 12.4 0 23.8-9.1 23.8-21.5 0-16.9-13.1-26.7-34.8-26.7l1-19.9c17.4 0 24-5.4 24-15.5 0-7.2-5.1-13.4-13.5-13.4-7.9 0-12.9 4.8-15 11.1l-27.4-8.2c6.3-20.5 23.8-32.1 43.3-32.1 20.8 0 43.2 14.7 43.2 43z"/><path class="a" d="m390.9 79.5v29.9h-49.7v19c3.8-1 8-1.6 13.1-1.6 29.4 0 53.3 23.8 53.3 53.3 0 29.4-23.4 53.2-55.6 53.2-24.6 0-42.7-10.5-55-22.4l18.3-22c11.9 10.7 24.6 15.4 36.7 15.4 15.1 0 26.6-10.8 26.6-24.2 0-13.5-10-26-26.6-26.2-3.9 0-12.3 1.5-16.8 6.8h-21.8v-81.2z"/><path class="a" d="m64.7 251.4l0.1 4.6q-0.8-0.5-1.7-0.6-0.9-0.3-1.9-0.3-3.8 0-5.9 2.5-2 2.5-2 7.1v14.3h-4.5v-27.2h4.5v4.2q1.4-2.4 3.7-3.6 2.3-1.2 5.5-1.2 0.4 0 1 0 0.6 0.1 1.2 0.2zm56.8 12.9v2.2h-20.6q0.3 4.6 2.8 7 2.5 2.4 6.9 2.4 2.6 0 5-0.6 2.4-0.6 4.8-1.9v4.2q-2.4 1-4.9 1.6-2.5 0.5-5.1 0.5-6.5 0-10.4-3.8-3.7-3.8-3.7-10.2 0-6.7 3.5-10.6 3.7-3.9 9.8-3.9 5.5 0 8.6 3.5 3.3 3.5 3.3 9.6zm-20.4-1.3h15.9q-0.1-3.7-2.1-5.9-2-2.2-5.3-2.2-3.7 0-6 2.2-2.2 2.1-2.5 5.9zm80.1-0.4v16.4h-4.4v-16.3q0-3.8-1.5-5.7-1.6-2-4.6-2-3.6 0-5.7 2.3-2.1 2.3-2.1 6.3v15.4h-4.4v-27.2h4.4v4.2q1.6-2.4 3.8-3.6 2.2-1.2 5-1.2 4.7 0 7.1 2.9 2.4 2.9 2.4 8.5zm38.7-18.5h4.5v7.7h9.2v3.5h-9.2v14.7q0 3.4 0.9 4.3 0.9 1 3.7 1h4.6v3.7h-4.6q-5.2 0-7.1-1.9-2-2-2-7.1v-14.7h-3.3v-3.5h3.3zm66.2 21.3h-4.4q-5.5 0-7.5 1.2-2.1 1.2-2.1 4.2 0 2.4 1.5 3.8 1.6 1.4 4.3 1.4 3.7 0 5.9-2.6 2.3-2.7 2.3-7.1zm4.5-1.8v15.5h-4.5v-4.1q-1.5 2.5-3.8 3.7-2.3 1.1-5.6 1.1-4.2 0-6.6-2.3-2.5-2.4-2.5-6.3 0-4.6 3.1-6.9 3-2.3 9.1-2.3h6.3v-0.5q0-3.1-2-4.7-2-1.7-5.7-1.7-2.3 0-4.6 0.5-2.2 0.6-4.2 1.7v-4.1q2.4-1 4.8-1.4 2.3-0.5 4.4-0.5 5.9 0 8.9 3 2.9 3.1 2.9 9.3zm39 15.5v-37.8h4.5v37.8zm61-26.4v4.2q-1.9-0.9-4-1.4-2-0.5-4.2-0.5-3.3 0-5 1-1.6 1-1.6 3.1 0 1.5 1.1 2.4 1.2 0.9 4.8 1.7l1.6 0.4q4.7 1 6.7 2.8 2 1.9 2 5.2 0 3.8-3 6-3 2.2-8.2 2.2-2.2 0-4.6-0.4-2.3-0.4-5-1.3v-4.6q2.5 1.3 4.9 2 2.4 0.6 4.8 0.6 3.1 0 4.8-1.1 1.7-1.1 1.7-3 0-1.9-1.2-2.8-1.2-1-5.4-1.9l-1.5-0.4q-4.2-0.8-6-2.6-1.9-1.9-1.9-5 0-3.9 2.8-5.9 2.7-2.1 7.7-2.1 2.4 0 4.6 0.3 2.2 0.4 4.1 1.1z"/><path class="a" d="m61.8 53v-36.3h4.3v36.3zm51.1-10.3v-15.9h4.3v15.7q0 3.7 1.4 5.6 1.5 1.8 4.4 1.8 3.5 0 5.5-2.2 2-2.2 2-6v-14.9h4.3v26.2h-4.3v-4q-1.6 2.4-3.6 3.5-2.1 1.2-4.8 1.2-4.5 0-6.9-2.8-2.3-2.8-2.3-8.2zm10.8-16.5zm74.9 0.6h5.1l-9.5 12.8 9.9 13.4h-5l-7.6-10.3-7.6 10.3h-5.1l10.1-13.7-9.3-12.5h5.1l7 9.4zm49.4 15.8v-15.8h4.3v15.6q0 3.7 1.5 5.6 1.4 1.9 4.3 1.9 3.5 0 5.5-2.3 2-2.2 2-6v-14.8h4.3v26.1h-4.3v-4q-1.5 2.4-3.6 3.6-2.1 1.1-4.8 1.1-4.5 0-6.9-2.8-2.3-2.8-2.3-8.2zm10.8-16.5zm73.4 0.3v4.4q-0.7-0.4-1.6-0.6-0.8-0.2-1.9-0.2-3.6 0-5.6 2.3-1.9 2.4-1.9 6.8v13.8h-4.3v-26.1h4.3v4q1.3-2.4 3.5-3.5 2.2-1.2 5.3-1.2 0.4 0 1 0.1 0.5 0 1.2 0.2zm65.1 0.4l-11.5 28.5q-1.8 4.7-3.5 6.1-1.7 1.5-4.6 1.5h-3.5v-3.6h2.6q1.7 0 2.7-0.9 1-0.8 2.2-3.9l0.8-2-10.6-25.7h4.5l8.2 20.4 8.2-20.4z"/></svg>